<?xml version="1.0" standalone="no"?>
<!DOCTYPE svg PUBLIC "-//W3C//DTD SVG 20010904//EN" "http://www.w3.org/TR/2001/REC-SVG-20010904/DTD/svg10.dtd">
<!-- Created using Krita: https://krita.org -->
<svg xmlns="http://www.w3.org/2000/svg" 
    xmlns:xlink="http://www.w3.org/1999/xlink"
    xmlns:krita="http://krita.org/namespaces/svg/krita"
    xmlns:sodipodi="http://sodipodi.sourceforge.net/DTD/sodipodi-0.dtd"
    width="60pt"
    height="60pt"
    viewBox="0 0 60 60">
<defs/>
<path id="shape0" transform="matrix(1.32988459399459 0 0 1.32988459399459 30.000385484575 22.7907615720785)" fill="#ffffff" fill-rule="evenodd" stroke="#ffffff" stroke-width="0.24" stroke-linecap="square" stroke-linejoin="bevel" d="M0 19.8525C2.78261 19.8316 14.4608 18.0736 14.4 9.0525C18.6555 5.37334 14.7141 0.0912775 10.14 3.0525C5.93757 0.665598 2.39243 0.0601264 0 0L0 19.8525" sodipodi:nodetypes="ccccc"/><path id="shape01" transform="matrix(-1.32988459399459 0 0 1.32988459399459 29.9972934923193 22.7905641015651)" fill="#ffffff" fill-rule="evenodd" stroke="#ffffff" stroke-width="0.24" stroke-linecap="square" stroke-linejoin="bevel" d="M0 19.8528C2.7827 19.8319 14.4613 18.0739 14.4005 9.05264C18.6561 5.37342 14.7146 0.0912789 10.1403 3.05255C5.93777 0.665608 2.39251 0.0601273 0 0L0 19.8528" sodipodi:nodetypes="ccccc"/><ellipse id="shape1" transform="matrix(1.32988459399459 0 0 1.32988459399459 40.2537926145002 10.5524993498543)" rx="2.50874984543417" ry="2.52750047270804" cx="2.50874984543417" cy="2.52750047270804" fill="#ffffff" fill-rule="evenodd"/><path id="shape2" transform="matrix(1.32988459399459 0 0 1.32988459399459 28.4045239717815 10.8916211786172)" fill="#ffffff" fill-rule="evenodd" stroke="#ffffff" stroke-width="0.24" stroke-linecap="square" stroke-linejoin="bevel" d="M0.2925 10.8L2.7 0L9.6 1.36875L9.6 2.4L3.465 1.00875L1.67625 9.6L0 10.8" sodipodi:nodetypes="ccccccc"/><ellipse id="shape3" transform="matrix(1.32988459399459 0 0 1.32988459399459 34.1496254178381 30.0419593321393)" rx="2.52" ry="2.64" cx="2.52" cy="2.64" fill="#fd4400" fill-rule="evenodd"/><ellipse id="shape4" transform="matrix(1.32988459399459 0 0 1.32988459399459 19.1485271975792 30.0419593321393)" rx="2.52" ry="2.64" cx="2.52" cy="2.64" fill="#fd4400" fill-rule="evenodd"/><path id="shape5" transform="matrix(1.32988459399459 0 0 1.32988459399459 30.000385484575 41.2127408669335)" fill="#fd4400" fill-rule="evenodd" stroke="#fd4400" stroke-width="0.24" stroke-linecap="square" stroke-linejoin="bevel" d="M0 1.55737C3.56476 1.96618 4.88382 -0.022174 6 0.000187275C7.2593 1.1144 2.42322 2.77585 0 2.78925L0 1.55737" sodipodi:nodetypes="cccc"/><path id="shape02" transform="matrix(-1.32988459399459 0 0 1.32988459399459 30.005181194943 41.2125410851256)" fill="#fd4400" fill-rule="evenodd" stroke="#fd4400" stroke-width="0.24" stroke-linecap="square" stroke-linejoin="bevel" d="M0 1.55712C3.56516 1.96586 4.88437 -0.0221704 6.00068 0.000187245C7.26012 1.11422 2.42349 2.7754 0 2.7888L0 1.55712" sodipodi:nodetypes="cccc"/>
</svg>
